<!-- Generator: Adobe Illustrator 22.0.1, SVG Export Plug-In  -->
<svg version="1.1"
	 xmlns="http://www.w3.org/2000/svg" xmlns:xlink="http://www.w3.org/1999/xlink" xmlns:a="http://ns.adobe.com/AdobeSVGViewerExtensions/3.0/"
	 x="0px" y="0px" width="120px" height="120px" viewBox="0 0 120 120" style="enable-background:new 0 0 120 120;"
	 xml:space="preserve">
<style type="text/css">
	.st0{fill:#00ACED;}
	.st1{fill:#FFFFFF;}
</style>
<defs>
</defs>
<g id="Twitter_copy">
	<g>
		<rect class="st0" width="120" height="120"/>
	</g>
	<path class="st1" d="M100.9,36.3c0.1,1,0.1,2,0.1,3c0,30.4-21.2,65.3-60,65.3c-11.9,0-23-3.8-32.4-10.3c1.7,0.2,3.3,0.3,5.1,0.3
		c9.9,0,18.9-3.6,26.2-9.8c-9.3-0.2-17-6.8-19.7-15.9c1.3,0.2,2.6,0.4,4,0.4c1.9,0,3.8-0.3,5.5-0.8C20,66.3,12.7,57.1,12.7,45.9
		v-0.3c2.8,1.7,6.1,2.8,9.5,2.9c-5.7-4.1-9.4-11.2-9.4-19.1c0-4.3,1-8.2,2.9-11.6c10.4,13.9,26,23,43.5,24c-0.3-1.7-0.5-3.5-0.5-5.3
		c0-12.7,9.4-23,21.1-23c6.1,0,11.6,2.8,15.4,7.3c4.8-1,9.3-2.9,13.4-5.5c-1.6,5.3-4.9,9.8-9.3,12.7c4.2-0.5,8.4-1.8,12.1-3.6
		C108.6,29,105,33,100.9,36.3L100.9,36.3z"/>
</g>
</svg>
