<svg xmlns="http://www.w3.org/2000/svg" xmlns:xlink="http://www.w3.org/1999/xlink" viewBox="0 0 120 120"><defs><style>.cls-1{fill:url(#linear-gradient);}.cls-2{fill:#fff;}</style><linearGradient id="linear-gradient" x1="111.34" y1="6.98" x2="6.77" y2="114.98" gradientUnits="userSpaceOnUse"><stop offset="0.15" stop-color="#8a3ab9"/><stop offset="0.53" stop-color="#ca476f"/><stop offset="0.94" stop-color="#f5b965"/></linearGradient></defs><title>Asset 4</title><g id="Layer_2" data-name="Layer 2"><g id="TS_Instagram"><g id="Layer_9" data-name="Layer 9"><rect class="cls-1" width="120" height="120"/><g id="Layer_8" data-name="Layer 8"><path class="cls-2" d="M60,34.73A25.27,25.27,0,1,0,85.28,60,25.23,25.23,0,0,0,60,34.73Zm0,41.7A16.43,16.43,0,1,1,76.44,60,16.46,16.46,0,0,1,60,76.43ZM92.2,33.7a5.89,5.89,0,1,1-5.89-5.89A5.87,5.87,0,0,1,92.2,33.7Zm16.74,6c-.37-7.89-2.18-14.89-8-20.65s-12.76-7.56-20.65-8c-8.14-.46-32.52-.46-40.66,0C31.8,11.45,24.8,13.25,19,19s-7.56,12.75-8,20.65c-.46,8.14-.46,32.52,0,40.66.37,7.89,2.18,14.89,8,20.65s12.76,7.56,20.65,8c8.14.46,32.52.46,40.66,0,7.89-.38,14.89-2.18,20.65-8s7.56-12.76,8-20.65c.46-8.14.46-32.5,0-40.64ZM98.43,89.05a16.67,16.67,0,0,1-9.37,9.37c-6.49,2.57-21.88,2-29.05,2s-22.58.57-29-2a16.67,16.67,0,0,1-9.37-9.37c-2.57-6.49-2-21.88-2-29s-.57-22.58,2-29A16.67,16.67,0,0,1,31,21.58c6.49-2.57,21.88-2,29.05-2s22.59-.57,29.05,2A16.67,16.67,0,0,1,98.43,31c2.57,6.49,2,21.88,2,29.05S101,82.58,98.43,89.05Z"/></g></g></g></g></svg>