<svg xmlns="http://www.w3.org/2000/svg" viewBox="0 0 434.99 387.49"><title>Asset 1</title><g id="Layer_2" data-name="Layer 2"><g id="Layer_1-2" data-name="Layer 1"><path d="M382.12,387.92h-331c-1.58-.21-3.16-.41-4.74-.64-12.45-1.79-23.23-6.89-31.91-16.12-9.32-9.91-13.23-22-13.77-35.29C.53,330.64.66,325.4.56,320.16c-.24-13,0-26-.25-39C.15,271.3.2,261.42.23,251.54c.1-32.55-.39-65.11.44-97.66a73.14,73.14,0,0,1,1-11.45C4.58,127,12.45,114.89,26.18,106.89c9.25-5.38,19.44-7.32,30-8,7.11-.45,14.22-.21,21.34-.37,8.91-.2,17.84-.08,26.75-.08q21.84,0,43.68,0a29.93,29.93,0,0,0,7.71-1,26.14,26.14,0,0,0,11.08-6c1.93-1.77,2.44-3.79,1.27-5.7-2.81-4.6-5.5-9.32-9.14-13.34-6.6-7.25-13.6-14.1-20.46-21.1C131,43.81,123.54,36.41,116.13,29c-3-3-5.93-5.95-8.8-9-3.21-3.44-3.18-4.75,0-8.25s6.2-6.79,9.3-10.18c1.29-1.42,1.31-1.44,2.61,0C131.55,15,144.64,27.85,157.37,41c6.89,7.13,13.82,14.23,20.66,21.4,6.42,6.73,14,9.22,23.09,6.79a73,73,0,0,1,19.69-2.44,81.89,81.89,0,0,1,19.33,2.61c8.09,2.07,15.11.25,20.94-5.81,6.66-6.92,13.25-13.89,19.94-20.78,8-8.23,16.1-16.36,24.5-24.18Q313.73,11,321.88,3.25c.57-.54,1.05-.91,1.82-.23,3.55,3.1,7.15,6.16,10.71,9.25a2.51,2.51,0,0,1,.72,3.06,20.5,20.5,0,0,1-4.2,6.78c-3.57,3.57-7.05,7.2-10.58,10.8Q303.49,50.07,286.61,67.2c-5.13,5.19-10.14,10.42-13.5,17-1.84,3.62-1.54,6,1.73,8.44a27.46,27.46,0,0,0,16.5,5.72c19.6.1,39.2,0,58.8.08,10.31,0,20.63-.3,30.94.42a69.39,69.39,0,0,1,16.36,2.93c9.44,3,17.79,7.8,24.44,15.25,7.91,8.86,11.5,19.51,12.61,31.14.26,2.62.45,5.25.67,7.87V327.2a6.13,6.13,0,0,0-.15.94c0,3.76-.37,7.5-.75,11.24a58.86,58.86,0,0,1-3,14.64c-7.12,19.1-21.17,29.64-41,33C387.62,387.46,384.86,387.62,382.12,387.92ZM279.63,343.68h98.16a42.25,42.25,0,0,0,5.51-.23c5.33-.71,9.62-3.09,12.43-7.8a19.85,19.85,0,0,0,2.45-10.49q0-82.38,0-164.76a36.27,36.27,0,0,0-.25-4.42c-.87-7.52-5.49-12.76-12.75-14.41a29.89,29.89,0,0,0-6.67-.59H94.32q-18.9,0-37.8,0a19.91,19.91,0,0,0-9.83,2.26c-6.23,3.41-9.25,8.87-9.34,15.81-.11,9.07-.12,18.15.09,27.23.16,6.92.09,13.84.07,20.76-.08,30.88.19,61.75-.18,92.63-.1,8.56.06,17.12,0,25.68a18.12,18.12,0,0,0,18.45,18.43c15.8-.23,31.6-.12,47.39-.17q39.06-.15,78.11.06C214,343.81,246.83,343.68,279.63,343.68Z" transform="translate(-0.17 -0.43)"/><path d="M180,232.29V204c0-1.89,0-1.9,1.94-1.9h13c2,0,2,0,2,2.09q0,26.87,0,53.74a20.76,20.76,0,0,0,.76,5.93,9.9,9.9,0,0,0,15.06,5.54,9.33,9.33,0,0,0,3.77-5.38,21.71,21.71,0,0,0,.79-6.52q0-26.1,0-52.19v-1.2c0-2,0-2,2-2h13.19c1.83,0,1.85,0,1.85,1.9,0,5.72,0,11.44,0,17.16,0,12.23,0,24.47,0,36.71a29,29,0,0,1-1.58,10,21.08,21.08,0,0,1-14.09,13.51,38,38,0,0,1-23.83-.19c-8.6-2.86-13.23-9.11-14.54-18a29.85,29.85,0,0,1-.26-4.43Q180,245.56,180,232.29Z" transform="translate(-0.17 -0.43)"/><path d="M125.61,256.89c2.32,0,4.64,0,7,0,1.06,0,1.52.36,1.47,1.48a24.85,24.85,0,0,0,.48,6.08c.78,3.91,3.08,5.95,7.06,6.34a12.9,12.9,0,0,0,3,0c4.07-.53,6.48-3.12,6.88-7.21a10,10,0,0,0-3.26-8.63,40.83,40.83,0,0,0-7.72-5.46c-4.58-2.7-9.29-5.19-13.42-8.59-4.39-3.62-7.62-8-8.6-13.72a26,26,0,0,1,1.42-14.14c2.19-5.53,6.4-8.89,12-10.59a41,41,0,0,1,21.91-.69c8.4,2,13.13,7.78,13.87,16.43a37.16,37.16,0,0,1,.16,5.38c-.06.91-.4,1.37-1.39,1.37-4.64,0-9.28,0-13.92,0-.89,0-1.29-.35-1.28-1.29a18.85,18.85,0,0,0-.76-5.68c-1-3.43-3.28-5-7-5-4.12,0-6.88,1.86-7.82,5.24a9.56,9.56,0,0,0,2.46,9.73,33.78,33.78,0,0,0,8.43,5.88,122.55,122.55,0,0,1,11.08,6.46c4.31,3,8,6.61,9.7,11.72a26.52,26.52,0,0,1-1.19,20.2c-2.3,4.9-6.46,7.78-11.56,9.21a45.88,45.88,0,0,1-22.89.66c-8.28-1.91-13.14-7.48-14.3-16.05a36.67,36.67,0,0,1-.31-7.77c.08-1.07.52-1.37,1.48-1.36C120.89,256.91,123.25,256.89,125.61,256.89Z" transform="translate(-0.17 -0.43)"/><path d="M337,259.54c.84-3.48,1.6-6.62,2.35-9.76q5.55-23.09,11.06-46.18c.27-1.13.73-1.56,1.94-1.54,4.55.06,9.11,0,13.67,0,1.42,0,1.47.06,1.11,1.43q-10.15,38.39-20.28,76.76a1.78,1.78,0,0,1-2.08,1.57q-8.22-.08-16.43,0c-1.23,0-1.72-.42-2-1.62q-9.36-38.15-18.8-76.27c-.45-1.83-.42-1.88,1.49-1.88,4.68,0,9.36,0,14,0,1.25,0,1.73.43,2,1.62q4.44,21.06,8.95,42.11,1.33,6.27,2.68,12.55C336.68,258.62,336.78,258.91,337,259.54Z" transform="translate(-0.17 -0.43)"/><path d="M279.39,248.69v31.08c0,2,0,2.06-2.09,2.06H264.58c-2.21,0-2.21,0-2.21-2.18V218.1c0-2.51,0-2.51-2.49-2.51H245.72c-1.73,0-1.83-.1-1.83-1.84,0-3.35,0-6.71,0-10.07,0-1.14.32-1.62,1.57-1.62q25.44.06,50.87,0c1.26,0,1.59.47,1.58,1.61,0,3.44-.05,6.88,0,10.32,0,1.19-.41,1.63-1.61,1.62-5,0-10.08,0-15.12,0-1.66,0-1.76.1-1.76,1.78Q279.39,233,279.39,248.69Z" transform="translate(-0.17 -0.43)"/><path d="M64.8,241.91V204.35c0-2.27,0-2.27,2.32-2.27H79.6c2.11,0,2.12,0,2.12,2.08v61.55a9.61,9.61,0,0,1,0,1.2c-.12,1.13.4,1.43,1.47,1.43,7,0,14.08,0,21.12,0,2.33,0,2.34,0,2.34,2.37,0,3.2,0,6.4,0,9.6,0,1.15-.42,1.55-1.55,1.55q-19.36,0-38.75,0c-1.43,0-1.54-.15-1.54-1.76Q64.79,261,64.8,241.91Z" transform="translate(-0.17 -0.43)"/></g></g></svg>