<!-- Generator: Adobe Illustrator 22.0.1, SVG Export Plug-In  -->
<svg version="1.1"
	 xmlns="http://www.w3.org/2000/svg" xmlns:xlink="http://www.w3.org/1999/xlink" xmlns:a="http://ns.adobe.com/AdobeSVGViewerExtensions/3.0/"
	 x="0px" y="0px" width="120px" height="120px" viewBox="0 0 120 120" style="enable-background:new 0 0 120 120;"
	 xml:space="preserve">
<style type="text/css">
	.st0{fill:url(#SVGID_1_);}
	.st1{fill:#FFFFFF;}
	.st2{fill:url(#SVGID_2_);}
</style>
<defs>
</defs>
<g id="Layer_9_copy">
	<linearGradient id="SVGID_1_" gradientUnits="userSpaceOnUse" x1="111.3392" y1="6.9776" x2="6.7677" y2="114.9776">
		<stop  offset="0.1462" style="stop-color:#8A3AB9"/>
		<stop  offset="0.5308" style="stop-color:#CA476F"/>
		<stop  offset="0.941" style="stop-color:#F5B965"/>
	</linearGradient>
	<rect class="st0" width="120" height="120"/>
	<path class="st1" d="M60,34.7C46,34.7,34.7,46,34.7,60S46,85.3,60,85.3S85.3,74,85.3,60S74,34.7,60,34.7z M60,76.4
		c-9,0-16.4-7.4-16.4-16.4S51,43.6,60,43.6S76.4,50.9,76.4,60S69,76.4,60,76.4L60,76.4z M92.2,33.7c0,3.3-2.6,5.9-5.9,5.9
		c-3.3,0-5.9-2.6-5.9-5.9s2.6-5.9,5.9-5.9C89.6,27.8,92.2,30.4,92.2,33.7z M108.9,39.7c-0.4-7.9-2.2-14.9-8-20.6
		c-5.8-5.8-12.8-7.6-20.6-8c-8.1-0.5-32.5-0.5-40.7,0C31.8,11.4,24.8,13.2,19,19s-7.6,12.8-8,20.6c-0.5,8.1-0.5,32.5,0,40.7
		c0.4,7.9,2.2,14.9,8,20.6s12.8,7.6,20.6,8c8.1,0.5,32.5,0.5,40.7,0c7.9-0.4,14.9-2.2,20.6-8c5.8-5.8,7.6-12.8,8-20.6
		C109.4,72.2,109.4,47.8,108.9,39.7L108.9,39.7z M98.4,89c-1.7,4.3-5,7.6-9.4,9.4c-6.5,2.6-21.9,2-29,2s-22.6,0.6-29-2
		c-4.3-1.7-7.6-5-9.4-9.4c-2.6-6.5-2-21.9-2-29s-0.6-22.6,2-29c1.7-4.3,5-7.6,9.4-9.4c6.5-2.6,21.9-2,29-2s22.6-0.6,29,2
		c4.3,1.7,7.6,5,9.4,9.4c2.6,6.5,2,21.9,2,29S101,82.6,98.4,89z"/>
</g>
</svg>
